HIERARCHY
ROOT Character1_Hips
{
  OFFSET -7.75398 102.257 55.0268
  CHANNELS 6 Xposition Yposition Zposition Zrotation Xrotation Yrotation
  JOINT Character1_Spine
  {
    OFFSET 0 8.754 -1.339
    CHANNELS 3 Zrotation Xrotation Yrotation
    JOINT Character1_Spine1
    {
      OFFSET 0 10.855 -0.645
      CHANNELS 3 Zrotation Xrotation Yrotation
      JOINT Character1_LeftShoulder
      {
        OFFSET 1.467 27.745 1.178
        CHANNELS 3 Zrotation Xrotation Yrotation
        JOINT Character1_LeftArm
        {
          OFFSET 18.486 -1.858 0.275
          CHANNELS 3 Zrotation Xrotation Yrotation
          JOINT Character1_LeftForeArm
          {
            OFFSET 31.798 2.36 2.921
            CHANNELS 3 Zrotation Xrotation Yrotation
            JOINT Character1_LeftHand
            {
              OFFSET 29.001 1.642 2.112
              CHANNELS 3 Zrotation Xrotation Yrotation
              End Site
              {
                OFFSET 0.269758 0.141128 0.89614
              }
            }
            JOINT L_Radius_RIGMESH
            {
              OFFSET 0.592911 0.209926 -0.435177
              CHANNELS 3 Zrotation Xrotation Yrotation
              End Site
              {
                OFFSET 0 0 0
              }
            }
          }
          JOINT L_Humerus_RIGMESH
          {
            OFFSET 0.000383861 -0.000257932 -6.47351e-005
            CHANNELS 3 Zrotation Xrotation Yrotation
            End Site
            {
              OFFSET 0 0 0
            }
          }
        }
        JOINT L_Shoulder_RIGMESH
        {
          OFFSET 3.24498e-005 -0.000608592 -0.000527677
          CHANNELS 3 Zrotation Xrotation Yrotation
          End Site
          {
            OFFSET 0 0 0
          }
        }
      }
      JOINT Character1_RightShoulder
      {
        OFFSET -1.467 27.745 1.178
        CHANNELS 3 Zrotation Xrotation Yrotation
        JOINT Character1_RightArm
        {
          OFFSET -18.486 -1.858 0.275
          CHANNELS 3 Zrotation Xrotation Yrotation
          JOINT Character1_RightForeArm
          {
            OFFSET -31.798 2.35964 2.92082
            CHANNELS 3 Zrotation Xrotation Yrotation
            JOINT Character1_RightHand
            {
              OFFSET -29.0007 1.64167 2.112
              CHANNELS 3 Zrotation Xrotation Yrotation
              End Site
              {
                OFFSET 161.773 0.141827 0.896322
              }
            }
            JOINT R_Radius_RIGMESH
            {
              OFFSET 104.095 0.21029 -0.434995
              CHANNELS 3 Zrotation Xrotation Yrotation
              End Site
              {
                OFFSET 0 0 0
              }
            }
          }
          JOINT R_Humerus_RIGMESH
          {
            OFFSET 39.9064 -0.000257932 -6.47351e-005
            CHANNELS 3 Zrotation Xrotation Yrotation
            End Site
            {
              OFFSET 0 0 0
            }
          }
        }
        JOINT R_Shoulder_RIGMESH
        {
          OFFSET -3.24498e-005 -0.000608592 -0.000527677
          CHANNELS 3 Zrotation Xrotation Yrotation
          End Site
          {
            OFFSET 0 0 0
          }
        }
      }
      JOINT Character1_Neck
      {
        OFFSET 0 30.836 0.626
        CHANNELS 3 Zrotation Xrotation Yrotation
        JOINT Character1_Head
        {
          OFFSET 0 8.074 3.498
          CHANNELS 3 Zrotation Xrotation Yrotation
          End Site
          {
            OFFSET 0 -0.00153379 1.54668e-005
          }
        }
        JOINT Neck_RIGMESH
        {
          OFFSET -0.795351 0.493049 -1.70276
          CHANNELS 3 Zrotation Xrotation Yrotation
          End Site
          {
            OFFSET 0 0 0
          }
        }
      }
      JOINT Torso_RIGMESH
      {
        OFFSET 0 -0.000828813 -0.000380861
        CHANNELS 3 Zrotation Xrotation Yrotation
        End Site
        {
          OFFSET 0 0 0
        }
      }
    }
    JOINT Spine_RIGMESH
    {
      OFFSET -0.700866 0.229527 0.546557
      CHANNELS 3 Zrotation Xrotation Yrotation
      End Site
      {
        OFFSET 0 0 0
      }
    }
  }
  JOINT Character1_RightUpLeg
  {
    OFFSET -9.035 -4.63425 1.845
    CHANNELS 3 Zrotation Xrotation Yrotation
    JOINT Character1_RightLeg
    {
      OFFSET -0.919521 -40.345 1.155
      CHANNELS 3 Zrotation Xrotation Yrotation
      JOINT Character1_RightFoot
      {
        OFFSET 1.95452 -45.2655 -4.18888
        CHANNELS 3 Zrotation Xrotation Yrotation
        JOINT Character1_RightToeBase
        {
          OFFSET 1.87056 -6.69517 14.7145
          CHANNELS 3 Zrotation Xrotation Yrotation
          End Site
          {
            OFFSET 0 0 0
          }
        }
        JOINT R_Talus_RIGMESH
        {
          OFFSET 8 -7.75529 4.18888
          CHANNELS 3 Zrotation Xrotation Yrotation
          End Site
          {
            OFFSET 0 0 0
          }
        }
      }
      JOINT R_Tibia_RIGMESH
      {
        OFFSET 0 0 0
        CHANNELS 3 Zrotation Xrotation Yrotation
        End Site
        {
          OFFSET 0 0 0
        }
      }
    }
    JOINT R_Femur_RIGMESH
    {
      OFFSET 0 0 0
      CHANNELS 3 Zrotation Xrotation Yrotation
      End Site
      {
        OFFSET 0 0 0
      }
    }
  }
  JOINT Character1_LeftUpLeg
  {
    OFFSET 9.035 -4.63425 1.845
    CHANNELS 3 Zrotation Xrotation Yrotation
    JOINT Character1_LeftLeg
    {
      OFFSET 0.919521 -40.345 1.155
      CHANNELS 3 Zrotation Xrotation Yrotation
      JOINT Character1_LeftFoot
      {
        OFFSET -1.95452 -45.2655 -4.18888
        CHANNELS 3 Zrotation Xrotation Yrotation
        JOINT Character1_LeftToeBase
        {
          OFFSET -1.87056 -6.69517 14.7145
          CHANNELS 3 Zrotation Xrotation Yrotation
          End Site
          {
            OFFSET 0 0 0
          }
        }
        JOINT L_Talus_RIGMESH
        {
          OFFSET -8 -7.75529 4.18888
          CHANNELS 3 Zrotation Xrotation Yrotation
          End Site
          {
            OFFSET 0 0 0
          }
        }
      }
      JOINT L_Tibia_RIGMESH
      {
        OFFSET 0 0 0
        CHANNELS 3 Zrotation Xrotation Yrotation
        End Site
        {
          OFFSET 0 0 0
        }
      }
    }
    JOINT L_Femur_RIGMESH
    {
      OFFSET 0 0 0
      CHANNELS 3 Zrotation Xrotation Yrotation
      End Site
      {
        OFFSET 0 0 0
      }
    }
  }
  JOINT Pelvis_RIGMESH
  {
    OFFSET 0 0 0
    CHANNELS 3 Zrotation Xrotation Yrotation
    End Site
    {
      OFFSET 0 0 0
    }
  }
}
MOTION
Frames:	4
Frame Time:	0.00833333
0.0565447 96.184 106.554 10.2888 -9.52574 -131.165 7.95139e-016 0 -0 2.99901 -19.5402 -3.11751 2.35798e-007 -5.54736e-007 5.93988e-009 -18.1541 -0.215204 8.64625 9.52061 -3.85508 -16.9055 2.71892 41.5586 -7.15744 7.95139e-016 -1.59028e-015 3.18055e-015 1.59028e-015 0 6.36111e-015 5.96354e-016 -3.97569e-016 -6.36111e-015 2.35798e-007 -5.54736e-007 5.93988e-009 -155.173 -52.9534 160.012 -5.45658 -1.88784 9.87641 -156.987 57.5011 167.255 3.18055e-015 -2.38542e-015 7.95139e-016 1.61383e-031 -2.38542e-015 3.8763e-015 5.96354e-016 -3.97569e-016 -6.36111e-015 1.39149e-015 -7.95139e-016 3.18055e-015 6.91329 13.7255 -32.9314 -10.0815 5.87944 -9.4758 1.39149e-015 -7.95139e-016 3.18055e-015 -0.55993 -18.2552 -3.06934 -20.7913 -42.2904 -20.1773 -0.383249 24.1015 0.835685 -2.55224 -1.99859 -25.9881 -0.0427173 33.5964 1.07281 1.19271e-015 -3.18055e-015 -0 -7.95139e-016 0 -1.27222e-014 -6.36111e-015 0 3.18055e-015 -4.68386 -6.09322 -4.20865 0.00299321 12.1948 -0.305082 20.2909 -28.8342 35.7184 0.00182288 2.4509 -0.0427692 9.93923e-016 -5.96354e-016 3.18055e-015 -1.59028e-015 4.77083e-015 9.54166e-015 1.39149e-015 -5.96354e-016 -6.36111e-015 7.95139e-016 0 -0 
0.092716 96.0133 105.84 10.2757 -9.74335 -130.893 -3.18055e-015 0 9.54166e-015 2.28823 -19.935 -2.70328 2.35798e-007 -5.54736e-007 5.93988e-009 -17.1707 -0.386489 8.80108 9.5282 -3.85953 -16.9197 2.85967 42.3979 -7.3704 -7.95139e-016 -1.59028e-015 -0 3.18055e-015 -1.59028e-015 3.18055e-015 3.97569e-016 1.78906e-015 -3.18055e-015 2.35798e-007 -5.54736e-007 5.93988e-009 -153.581 -50.7634 159.978 -5.63747 -1.94462 10.0995 -158.098 54.7359 168.574 -3.18055e-015 1.59028e-015 7.15625e-015 1.30219e-031 -2.6339e-015 2.83268e-015 3.97569e-016 1.78906e-015 -3.18055e-015 7.95139e-016 -3.97569e-016 9.54166e-015 7.42943 13.7769 -33.9426 -9.91289 6.43507 -9.7089 7.95139e-016 -3.97569e-016 9.54166e-015 -1.05703 -18.5864 -2.71649 -21.0273 -42.6422 -21.6899 -0.373062 24.9698 0.809897 -3.07453 -1.92807 -29.8715 -0.0653336 33.5966 1.04549 -1.98785e-015 -4.77083e-015 7.95139e-016 -8.82781e-032 -1.59028e-015 -3.18055e-015 0 9.54166e-015 -0 -4.51611 -6.10679 -4.17305 0.000390882 12.4618 -0.313784 20.1239 -28.9081 35.3509 0.00125944 2.03862 -0.0355749 -7.95139e-016 4.57205e-015 -3.18055e-015 -3.18055e-015 -1.59028e-015 6.36111e-015 9.93923e-016 1.98785e-016 -6.36111e-015 -3.18055e-015 0 9.54166e-015 
0.130221 95.8409 105.121 10.2795 -9.94798 -130.604 -1.59028e-015 -7.95139e-016 6.36111e-015 1.57676 -20.3435 -2.28993 2.35798e-007 -5.54736e-007 5.93988e-009 -16.1584 -0.563075 8.94687 9.53863 -3.86564 -16.9391 3.01524 43.2697 -7.59973 -1.59028e-015 2.38542e-015 3.18055e-015 1.59028e-015 -1.59028e-015 6.36111e-015 -1.98785e-016 1.59028e-015 3.18055e-015 2.35798e-007 -5.54736e-007 5.93988e-009 -151.885 -48.4 159.979 -5.83568 -2.0078 10.3488 -159.054 51.782 169.763 -1.76556e-031 -3.18055e-015 -3.18055e-015 6.36111e-015 -1.02498e-015 -2.74571e-015 -1.98785e-016 1.59028e-015 3.18055e-015 3.97569e-016 -9.93923e-016 -0 7.97729 13.8174 -34.9768 -9.72347 7.02368 -9.94569 3.97569e-016 -9.93923e-016 -0 -1.5402 -18.9324 -2.36026 -21.2859 -42.97 -23.2764 -0.361196 25.8408 0.782443 -3.62083 -1.84386 -33.9788 -0.0886669 33.5969 1.0179 -4.96962e-017 0 -4.96962e-017 -3.18055e-015 -4.77083e-015 -0 -3.18055e-015 3.18055e-015 -0 -4.32744 -6.12588 -4.13335 -0.00215694 12.7321 -0.322876 19.9374 -28.974 34.955 0.000783787 1.61031 -0.0281073 -1.19271e-015 -3.27995e-015 -0 5.29669e-031 -3.18055e-015 9.54166e-015 -1.59028e-015 -1.98785e-015 -3.18055e-015 -1.59028e-015 -7.95139e-016 6.36111e-015 
0.165059 95.6717 104.413 10.2563 -10.1704 -130.346 -1.76556e-031 -3.18055e-015 -3.18055e-015 0.884821 -20.7225 -1.8689 2.35798e-007 -5.54736e-007 5.93988e-009 -15.2011 -0.728616 9.11101 9.54338 -3.86843 -16.9479 3.16738 44.0741 -7.8189 -4.41391e-032 7.95139e-016 3.18055e-015 1.59028e-015 0 9.54166e-015 -1.19271e-015 -1.19271e-015 -0 2.35798e-007 -5.54736e-007 5.93988e-009 -150.384 -46.399 159.836 -5.99791 -2.05785 10.5459 -159.744 49.1562 170.668 -6.62086e-032 2.38542e-015 1.59028e-015 -6.7394e-032 -1.46604e-015 -2.6339e-015 -1.19271e-015 -1.19271e-015 -0 -7.95139e-016 7.95139e-016 -0 8.47421 13.8539 -35.9653 -9.56195 7.54373 -10.1795 -7.95139e-016 7.95139e-016 -0 -2.03838 -19.2473 -2.00689 -21.5841 -43.2657 -24.7647 -0.35008 26.7064 0.75776 -4.10324 -1.76086 -37.6375 -0.110566 33.5971 0.990854 7.95139e-016 1.59028e-015 7.95139e-016 1.59028e-015 0 -0 3.18055e-015 6.36111e-015 -0 -4.18056 -6.13394 -4.10186 -0.00456384 12.9959 -0.331265 19.7886 -29.0521 34.6141 0.000443141 1.21405 -0.0212017 -7.95139e-016 -5.96354e-015 -0 1.59028e-015 -3.18055e-015 3.18055e-015 0 0 -6.36111e-015 -1.76556e-031 -3.18055e-015 -3.18055e-015 
